<svg xmlns="http://www.w3.org/2000/svg" xmlns:xlink="http://www.w3.org/1999/xlink" width="0" height="0" style="position:absolute">
	
		<symbol id="icon-bus" viewBox="0 0 76.334 76.334">
			<path d="M2.386 21.467h2.386v14.312H2.386A2.381 2.381 0 0 1 0 33.394v-9.542a2.388 2.388 0 0 1 2.386-2.385zm71.562 0H71.56v14.312h2.388a2.382 2.382 0 0 0 2.386-2.385v-9.542a2.387 2.387 0 0 0-2.386-2.385zm-7.156-4.769v42.937a4.767 4.767 0 0 1-4.771 4.771v4.771a4.766 4.766 0 0 1-4.771 4.771h-4.772a4.77 4.77 0 0 1-4.771-4.771v-4.771H28.626v4.771a4.767 4.767 0 0 1-4.771 4.771h-4.769a4.77 4.77 0 0 1-4.771-4.771v-4.771a4.77 4.77 0 0 1-4.771-4.771V16.698c-.002-7.902 6.41-14.312 14.311-14.312H52.48c7.902 0 14.312 6.408 14.312 14.312zm-38.166-4.77h19.083V7.157H28.626v4.771zm-4.771 42.938a4.765 4.765 0 0 0-4.769-4.771 4.768 4.768 0 0 0-4.771 4.771 4.77 4.77 0 1 0 9.54 0zm38.166 0c0-2.641-2.133-4.771-4.771-4.771s-4.771 2.133-4.771 4.771a4.77 4.77 0 1 0 9.542 0zm0-38.168H14.313v28.625h47.708V16.698z"></path>
		</symbol>
	
		<symbol id="icon-calendar" viewBox="0 0 496 496">
			<path d="M392 384c-8.824 0-16-7.176-16-16s7.176-16 16-16 16 7.176 16 16h16c0-14.864-10.24-27.288-24-30.864V320h-16v17.136c-13.76 3.576-24 16-24 30.864 0 17.648 14.352 32 32 32 8.824 0 16 7.176 16 16s-7.176 16-16 16-16-7.176-16-16h-16c0 14.864 10.24 27.288 24 30.864V464h16v-17.136c13.76-3.576 24-16 24-30.864 0-17.648-14.352-32-32-32zm56 0h16v16h-16zm-128 0h16v16h-16z"></path><path d="M400 288.408V32h-48v-8c0-13.232-10.768-24-24-24s-24 10.768-24 24v8h-16v-8c0-13.232-10.768-24-24-24s-24 10.768-24 24v8h-16v-8c0-13.232-10.768-24-24-24s-24 10.768-24 24v8h-16v-8c0-13.232-10.768-24-24-24s-24 10.768-24 24v8H96v-8C96 10.768 85.232 0 72 0S48 10.768 48 24v8H0v368h288.408c4.104 53.608 48.944 96 103.592 96 24.944 0 49.072-8.968 67.936-25.256l-10.456-12.112A87.959 87.959 0 0 1 392 480c-48.52 0-88-39.48-88-88s39.48-88 88-88 88 39.48 88 88c0 20.288-6.704 39.344-19.4 55.12l12.472 10.032C487.856 438.768 496 415.632 496 392c0-54.648-42.392-99.488-96-103.592zM320 24c0-4.408 3.592-8 8-8 4.408 0 8 3.592 8 8v32c0 4.408-3.592 8-8 8-4.408 0-8-3.592-8-8V24zm-64 0c0-4.408 3.592-8 8-8 4.408 0 8 3.592 8 8v32c0 4.408-3.592 8-8 8-4.408 0-8-3.592-8-8V24zm-64 0c0-4.408 3.592-8 8-8s8 3.592 8 8v32c0 4.408-3.592 8-8 8s-8-3.592-8-8V24zm-64 0c0-4.408 3.592-8 8-8s8 3.592 8 8v32c0 4.408-3.592 8-8 8s-8-3.592-8-8V24zm-64 0c0-4.408 3.592-8 8-8s8 3.592 8 8v32c0 4.408-3.592 8-8 8s-8-3.592-8-8V24zm288 264h-48v-48h48v48zm0-64h-48v-48h48v48zm0-64h-48v-48h48v48zm32 128.408c-5.464.416-10.8 1.264-16 2.504V96H224v64H32v208h144v-64h160.824c-27.136 17.08-45.832 46.28-48.416 80H16V48h32v8c0 13.232 10.768 24 24 24s24-10.768 24-24v-8h16v8c0 13.232 10.768 24 24 24s24-10.768 24-24v-8h16v8c0 13.232 10.768 24 24 24s24-10.768 24-24v-8h16v8c0 13.232 10.768 24 24 24s24-10.768 24-24v-8h16v8c0 13.232 10.768 24 24 24s24-10.768 24-24v-8h32v240.408zM240 224v-48h48v48h-48zm48 16v48h-48v-48h48zm-48-80v-48h48v48h-48zm-64 64v-48h48v48h-48zm48 16v48h-48v-48h48zm-112 48v-48h48v48h-48zm48 16v48h-48v-48h48zm-48-80v-48h48v48h-48zm-64 64v-48h48v48H48zm48 16v48H48v-48h48zm-48-80v-48h48v48H48z"></path>
		</symbol>
	
		<symbol id="icon-conversation" viewBox="0 0 512 512">
			<path d="M181.72 366.814a10.002 10.002 0 0 0-2.208-.362c10.954-11.513 17.7-27.066 17.7-44.174v-52.611c0-.481-.046-.95-.111-1.412.066-.95.111-1.906.111-2.872v-33.286c0-5.523-4.477-10-10-10h-67.073c-28.245 0-51.223 22.979-51.223 51.223v48.958c0 17.108 6.745 32.661 17.7 44.174a9.984 9.984 0 0 0-2.206.362C37.153 371.093 0 410.924 0 459.276V502c0 5.523 4.477 10 10 10h246.127c5.523 0 10-4.477 10-10v-42.724c0-48.351-37.151-88.182-84.407-92.462zm-92.804-80.813v-12.682c0-17.216 14.007-31.223 31.223-31.223h57.073v23.286c0 11.723-9.537 21.26-21.26 21.26H88.916v-.641zm0 20.641h67.036a40.998 40.998 0 0 0 21.26-5.914v21.549c0 24.343-19.805 44.148-44.148 44.148-24.343 0-44.148-19.805-44.148-44.148v-15.635zm65.913 79.784l-21.765 21.766-21.765-21.766h43.53zM246.128 492H20v-20h41.5c5.523 0 10-4.477 10-10s-4.477-10-10-10H20.365c3.359-33.716 29.806-60.717 63.255-64.969l42.373 42.373a10.001 10.001 0 0 0 14.142 0l42.373-42.373c35.824 4.553 63.62 35.204 63.62 72.245V492zm181.467-347.282a10.01 10.01 0 0 0-2.21-.362c10.954-11.513 17.699-27.066 17.699-44.174V47.57c0-.481-.046-.95-.111-1.412.066-.95.111-1.906.111-2.872V10c0-5.523-4.477-10-10-10h-67.073c-28.245 0-51.223 22.979-51.223 51.223v48.958c0 17.108 6.745 32.661 17.699 44.174a10.02 10.02 0 0 0-2.21.362c-47.255 4.281-84.405 44.112-84.405 92.462v42.723c0 5.523 4.477 10 10 10h80.46c5.523 0 10-4.477 10-10s-4.477-10-10-10h-70.46V237.18c0-37.041 27.795-67.692 63.619-72.245l42.373 42.373c1.953 1.953 4.512 2.929 7.071 2.929s5.119-.976 7.071-2.929l42.373-42.373C464.205 169.489 492 200.139 492 237.18v32.723h-73.667c-5.523 0-10 4.477-10 10s4.477 10 10 10H502c5.523 0 10-4.477 10-10V237.18c0-48.35-37.151-88.181-84.405-92.462zm-48.658 41.377l-21.765-21.765h43.53l-21.765 21.765zm44.148-85.914c0 24.343-19.805 44.148-44.148 44.148s-44.148-19.804-44.148-44.147V84.546h67.036a41.007 41.007 0 0 0 21.26-5.914v21.549zm0-56.895c0 11.723-9.537 21.26-21.26 21.26h-67.036V51.223c0-17.216 14.007-31.223 31.223-31.223h57.073v23.286z"></path><path d="M386.01 272.83a10.076 10.076 0 0 0-7.07-2.93c-2.64 0-5.21 1.07-7.07 2.93a10.033 10.033 0 0 0-2.93 7.07c0 2.64 1.06 5.21 2.93 7.07 1.86 1.87 4.43 2.93 7.07 2.93 2.63 0 5.21-1.06 7.07-2.93 1.86-1.86 2.93-4.43 2.93-7.07 0-2.63-1.07-5.21-2.93-7.07zM267.405 139.929l-41.821-41.821V50c0-27.57-22.43-50-50-50H50C22.43 0 0 22.43 0 50v88c0 27.57 22.43 50 50 50h125.583c20.674 0 38.702-12.407 46.266-31h38.484a10.002 10.002 0 0 0 7.072-17.071zM214.554 137a10 10 0 0 0-9.746 7.758C201.66 158.442 189.643 168 175.583 168H50c-16.542 0-30-13.458-30-30V50c0-16.542 13.458-30 30-30h125.583c16.542 0 30 13.458 30 30v52.25c0 2.652 1.054 5.196 2.929 7.071L236.191 137h-21.637zM462 324H336.417c-20.674 0-38.702 12.407-46.266 31h-38.484a10.002 10.002 0 0 0-7.072 17.071l41.821 41.821V462c0 27.57 22.43 50 50 50H462c27.57 0 50-22.43 50-50v-88c0-27.57-22.43-50-50-50zm30 138c0 16.542-13.458 30-30 30H336.417c-16.542 0-30-13.458-30-30v-52.25c0-2.652-1.054-5.196-2.929-7.071L275.809 375h21.637a10 10 0 0 0 9.746-7.758C310.34 353.558 322.357 344 336.417 344H462c16.542 0 30 13.458 30 30v88z"></path><path d="M444.156 391.392c-3.904-3.905-10.236-3.905-14.141 0l-26.583 26.583-12.361-12.361c-3.905-3.905-10.237-3.905-14.143 0-3.905 3.905-3.905 10.237 0 14.143l19.432 19.432c1.953 1.953 4.512 2.929 7.071 2.929s5.119-.976 7.071-2.929l33.654-33.654c3.905-3.905 3.905-10.237 0-14.143zM158.253 66.268c-1.182-17.147-15.004-30.969-32.151-32.151-9.723-.669-18.991 2.611-26.091 9.239a34.796 34.796 0 0 0-11.017 25.349c.001 5.524 4.478 10.001 10.001 10.001s10-4.477 10-10c0-4.111 1.656-7.921 4.664-10.729 3.003-2.804 6.938-4.196 11.069-3.906 7.239.499 13.074 6.334 13.573 13.573.505 7.319-4.293 13.787-11.408 15.379-7.788 1.742-13.227 8.513-13.227 16.465v5.335c0 5.523 4.477 10 10 10s10-4.477 10-10v-2.91c15.494-4.622 25.719-19.229 24.587-35.645zM130.74 136.02a10.076 10.076 0 0 0-7.07-2.93c-2.64 0-5.21 1.07-7.07 2.93-1.87 1.86-2.93 4.44-2.93 7.07s1.06 5.21 2.93 7.07c1.86 1.86 4.43 2.93 7.07 2.93 2.63 0 5.21-1.07 7.07-2.93 1.86-1.86 2.93-4.44 2.93-7.07s-1.07-5.21-2.93-7.07zm-22.17 318.91c-1.86-1.86-4.44-2.93-7.07-2.93s-5.21 1.07-7.07 2.93-2.93 4.44-2.93 7.07 1.07 5.21 2.93 7.07c1.86 1.86 4.44 2.93 7.07 2.93s5.21-1.07 7.07-2.93 2.93-4.44 2.93-7.07-1.07-5.21-2.93-7.07z"></path>
		</symbol>
	
		<symbol id="icon-home" viewBox="0 0 460.298 460.297">
			<path d="M230.149 120.939L65.986 256.274c0 .191-.048.472-.144.855-.094.38-.144.656-.144.852v137.041c0 4.948 1.809 9.236 5.426 12.847 3.616 3.613 7.898 5.431 12.847 5.431h109.63V303.664h73.097v109.64h109.629c4.948 0 9.236-1.814 12.847-5.435 3.617-3.607 5.432-7.898 5.432-12.847V257.981c0-.76-.104-1.334-.288-1.707L230.149 120.939z"></path><path d="M457.122 225.438L394.6 173.476V56.989c0-2.663-.856-4.853-2.574-6.567-1.704-1.712-3.894-2.568-6.563-2.568h-54.816c-2.666 0-4.855.856-6.57 2.568-1.711 1.714-2.566 3.905-2.566 6.567v55.673l-69.662-58.245c-6.084-4.949-13.318-7.423-21.694-7.423-8.375 0-15.608 2.474-21.698 7.423L3.172 225.438c-1.903 1.52-2.946 3.566-3.14 6.136-.193 2.568.472 4.811 1.997 6.713l17.701 21.128c1.525 1.712 3.521 2.759 5.996 3.142 2.285.192 4.57-.476 6.855-1.998L230.149 95.817l197.57 164.741c1.526 1.328 3.521 1.991 5.996 1.991h.858c2.471-.376 4.463-1.43 5.996-3.138l17.703-21.125c1.522-1.906 2.189-4.145 1.991-6.716-.195-2.563-1.242-4.609-3.141-6.132z"></path>
		</symbol>
	
		<symbol id="icon-shopping-cart" viewBox="0 0 475.084 475.085">
			<path d="M365.446 401.998c0 10.092 3.579 18.702 10.711 25.834 7.132 7.139 15.749 10.711 25.845 10.711 10.081 0 18.698-3.572 25.83-10.711 7.139-7.132 10.711-15.742 10.711-25.834s-3.568-18.702-10.711-25.841c-7.132-7.132-15.749-10.704-25.83-10.704-10.096 0-18.713 3.572-25.845 10.704-7.132 7.139-10.711 15.749-10.711 25.841zM469.658 78.51c-3.618-3.617-7.898-5.426-12.848-5.426H113.918c-.193-1.331-.621-3.756-1.287-7.277-.666-3.523-1.188-6.329-1.569-8.425-.383-2.087-1.093-4.611-2.142-7.561-1.047-2.952-2.284-5.286-3.711-6.995-1.425-1.718-3.328-3.189-5.708-4.43-2.378-1.233-5.092-1.853-8.136-1.853H18.276c-4.952 0-9.234 1.812-12.85 5.424C1.809 45.583 0 49.868 0 54.816s1.809 9.231 5.426 12.847c3.619 3.617 7.902 5.424 12.85 5.424h58.237l50.532 234.976c-.378.76-2.329 4.373-5.852 10.848-3.521 6.475-6.328 12.135-8.42 16.988-2.093 4.859-3.14 8.616-3.14 11.279 0 4.948 1.809 9.232 5.424 12.854 3.621 3.606 7.902 5.421 12.851 5.421h292.348c4.948 0 9.232-1.814 12.847-5.421 3.62-3.621 5.427-7.905 5.427-12.854 0-4.949-1.807-9.233-5.427-12.847-3.614-3.614-7.898-5.428-12.847-5.428h-262.66c4.57-9.138 6.854-15.222 6.854-18.268 0-1.909-.238-4.004-.715-6.283s-1.047-4.805-1.713-7.569c-.667-2.752-1.093-4.799-1.283-6.133l298.077-34.831c4.753-.575 8.658-2.614 11.703-6.14 3.046-3.518 4.565-7.562 4.565-12.133V91.363c-.002-4.948-1.806-9.231-5.426-12.853zM109.632 401.998c0 10.092 3.567 18.702 10.706 25.834 7.141 7.139 15.75 10.711 25.841 10.711 10.085 0 18.699-3.572 25.835-10.711 7.139-7.132 10.71-15.742 10.71-25.834s-3.568-18.702-10.71-25.841c-7.137-7.132-15.75-10.704-25.835-10.704-10.09 0-18.704 3.572-25.841 10.704-7.135 7.139-10.706 15.749-10.706 25.841z"></path>
		</symbol>
	
		<symbol id="icon-theater-masks" viewBox="0 18 512 512">
			<path d="M339 200c5.52 0 10-4.48 10-10s-4.48-10-10-10-10 4.48-10 10 4.48 10 10 10zM73 60c5.52 0 10-4.48 10-10s-4.48-10-10-10-10 4.48-10 10 4.48 10 10 10zm0 0"></path><path d="M118.148 325.938l15.157 6.503c12.515 5.36 26.87 5.36 39.398-.004l15.145-6.496a197.974 197.974 0 0 0 19.804-9.855c8.883 65.047 53.188 122.723 116.496 149.851l15.157 6.504c12.511 5.356 26.87 5.36 39.394-.004l15.149-6.496C464.278 435.761 512 366.797 512 291.31V170c0-16.543-13.457-30-30-30H306V30c0-16.543-13.457-30-30-30H30C13.457 0 0 13.457 0 30v121.309C0 226.895 47.816 295.8 118.148 325.937zM492 170v121.309c0 66.28-42.61 129.074-106.031 156.25l-15.145 6.5c-7.512 3.214-16.133 3.214-23.64 0l-15.157-6.5c-59.914-25.676-100.851-81.649-105.554-143.622 14.203-10.351 26.757-22.351 37.46-35.59A49.953 49.953 0 0 0 296 280a49.98 49.98 0 0 0 33.078-12.5c4.14-3.656 4.535-9.973.883-14.117-3.656-4.14-9.977-4.535-14.117-.88C310.364 257.337 303.316 260 296 260s-14.363-2.66-19.844-7.496c-.144-.133-.3-.242-.453-.363 17.93-27.575 28.477-59.27 30.067-92.141H482c5.516 0 10 4.484 10 10zM20 30c0-5.516 4.484-10 10-10h246c5.516 0 10 4.484 10 10v121.309c0 68.289-43.512 129.464-106.031 156.25l-15.145 6.5c-7.515 3.214-16.137 3.214-23.64 0l-15.157-6.5C62.61 280.383 20 217.589 20 151.309zm0 0"></path><path d="M213 180H93c-5.523 0-10 4.477-10 10 0 38.598 31.402 70 70 70s70-31.402 70-70c0-5.523-4.477-10-10-10zm-60 60c-24.145 0-44.348-17.215-48.996-40.012h97.992C197.348 222.781 177.145 240 153 240zM93 120a29.97 29.97 0 0 1 19.844 7.5c4.148 3.66 10.469 3.246 14.117-.883 3.652-4.14 3.258-10.46-.883-14.113C116.941 104.44 105.191 100 93 100s-23.938 4.441-33.074 12.504c-4.14 3.652-4.535 9.973-.883 14.113 3.652 4.14 9.973 4.535 14.113.883A29.97 29.97 0 0 1 93 120zm86.926-7.5a9.998 9.998 0 0 0-.883 14.117c3.652 4.14 9.973 4.535 14.113.88C198.636 122.663 205.684 120 213 120s14.363 2.66 19.844 7.496c4.152 3.664 10.472 3.25 14.117-.879 3.652-4.144 3.258-10.46-.883-14.117-9.137-8.063-20.887-12.5-33.078-12.5s-23.938 4.438-33.074 12.5zM113 60h120c5.523 0 10-4.477 10-10s-4.477-10-10-10H113c-5.523 0-10 4.477-10 10s4.477 10 10 10zm176 330c0 5.523 4.477 10 10 10h120c5.523 0 10-4.477 10-10 0-38.598-31.402-70-70-70s-70 31.402-70 70zm70-50c24.145 0 44.352 17.207 48.996 40h-97.992c4.644-22.793 24.851-40 48.996-40zm79.844-87.5c-5.48 4.836-12.528 7.5-19.844 7.5s-14.363-2.664-19.844-7.5c-4.14-3.652-10.46-3.258-14.113.883-3.656 4.14-3.262 10.46.883 14.113C395.062 275.56 406.809 280 419 280s23.938-4.441 33.074-12.504c4.145-3.652 4.54-9.973.883-14.113-3.652-4.14-9.973-4.535-14.113-.883zM379 200h60c5.523 0 10-4.477 10-10s-4.477-10-10-10h-60c-5.523 0-10 4.477-10 10s4.477 10 10 10zm0 0"></path>
		</symbol>
	
</svg>
